<svg xmlns="http://www.w3.org/2000/svg" width="200" height="160.261" viewBox="0 0 200 160.261">
  <g id="Group_88" data-name="Group 88" transform="translate(-5309 -2490.739)">
    <path id="Ruby_Texture_PT" d="M200,0,0,16.2V160.261H200Z" transform="translate(5309 2490.739)" fill="#6d6b6b"/>
    <g id="Group_82" data-name="Group 82" transform="translate(4214.961 -590.689)">
      <path id="Path_130" data-name="Path 130" d="M185.913,694.055,172,707.972l-10.052-10.051a2.411,2.411,0,0,0-3.415,0l-7.861,7.877a2.416,2.416,0,0,0,0,3.415,2.451,2.451,0,0,0,3.431,0h0l6.153-6.153L170.288,713.1a2.411,2.411,0,0,0,3.415,0l15.625-15.625a2.415,2.415,0,0,0-3.415-3.415" transform="translate(1024.054 2461.903)" fill="#f0f0f2"/>
      <path id="Path_131" data-name="Path 131" d="M50.038,530.689a50.039,50.039,0,1,0,50.039,50.039,50.039,50.039,0,0,0-50.039-50.039M63.7,612.3a1.841,1.841,0,0,1-1.574.9,1.789,1.789,0,0,1-.9-.239l-9.358-5.4v6.478a1.706,1.706,0,0,1-1.813,1.574,1.684,1.684,0,0,1-1.8-1.56v-6.478l-9.344,5.4a1.869,1.869,0,0,1-.9.239,1.84,1.84,0,0,1-1.574-.9,1.821,1.821,0,0,1,.661-2.473L48.253,603.4v-4.778h3.611V603.4l11.157,6.436h0A1.826,1.826,0,0,1,63.7,612.3m17.271-56.088a3.277,3.277,0,0,1-3.274,3.274H76.273V593.2H23.8V559.472H22.385a3.268,3.268,0,0,1-3.274-3.274v-1.7a3.268,3.268,0,0,1,3.274-3.274H77.72a3.228,3.228,0,0,1,3.247,3.274Z" transform="translate(1144 2592)" fill="#f0f0f2"/>
    </g>
  </g>
</svg>
