<svg xmlns="http://www.w3.org/2000/svg" width="179.574" height="126" viewBox="0 0 179.574 126">
  <g id="YouTube_Logo" data-name="YouTube Logo" transform="translate(0.5 0.5)">
    <path id="Subtraction_1" data-name="Subtraction 1" d="M89.286,125c-.14,0-14.14-.005-29.661-.466-9.116-.271-16.965-.643-23.33-1.107-7.955-.58-13.6-1.306-16.776-2.157A22.362,22.362,0,0,1,3.731,105.481,88.889,88.889,0,0,1,1.574,92.89C1.11,88.748.737,84,.466,78.769.005,69.867,0,62.573,0,62.5s.005-7.367.466-16.269C.892,38.016,1.8,26.712,3.731,19.519A22.361,22.361,0,0,1,19.52,3.732C22.7,2.881,28.341,2.155,36.3,1.574,42.66,1.11,50.509.737,59.625.466,75.145.005,89.147,0,89.286,0s14.141.005,29.661.466c9.116.271,16.966.644,23.33,1.108,7.955.58,13.6,1.306,16.776,2.158a22.361,22.361,0,0,1,15.788,15.787A88.87,88.87,0,0,1,177,32.11c.464,4.143.837,8.894,1.108,14.122.461,8.9.466,16.2.466,16.269s-.005,7.366-.466,16.268c-.426,8.216-1.338,19.519-3.266,26.712a22.362,22.362,0,0,1-15.788,15.788c-3.177.851-8.821,1.577-16.776,2.157-6.365.464-14.214.837-23.33,1.107C103.426,124.995,89.426,125,89.286,125ZM71.43,35.715V89.286L117.822,62.5,71.43,35.715Z" transform="translate(0 0)" fill="#6d6b6b" stroke="rgba(0,0,0,0)" stroke-miterlimit="10" stroke-width="1"/>
  </g>
</svg>
