<svg xmlns="http://www.w3.org/2000/svg" width="200" height="160.261" viewBox="0 0 200 160.261">
  <g id="Group_85" data-name="Group 85" transform="translate(-540 -2315)">
    <path id="Ruby_Texture_PT" d="M200,0,0,16.2V160.261H200Z" transform="translate(540 2315)" fill="#6d6b6b"/>
    <path id="Path_140" data-name="Path 140" d="M50,1.774a50,50,0,1,0,50,50,50,50,0,0,0-50-50m15.862,18.97,1.372-1.411.25-.257.355.051,6.337.9.507.072.088.5,1.1,6.289.062.355-.251.258-1.392,1.431-.967.995-.235-1.367-1-5.8-5.828-.833-1.373-.2ZM18.976,56.07l20.2-20.2.282-.282.387.1,14,3.457L68.483,24.333l.25-.253.352.05.918.131.509.073.087.507.157.914.061.358-.255.258L55.13,41.98l-.281.284-.388-.095L40.324,38.715,20.972,58.066l-.5.5-.5-.5-1-1-.5-.5Zm7.617,9.574c5.64,0,9.855,1.913,9.855,3.622s-4.215,3.624-9.855,3.624-9.854-1.912-9.854-3.624,4.213-3.622,9.854-3.622m9.856,9.811c0,1.708-4.215,3.621-9.856,3.621s-9.854-1.913-9.854-3.621V72.163c2.008,1.5,5.587,2.467,9.854,2.467s7.847-.965,9.856-2.467Zm11.9-22.185c5.64,0,9.855,1.913,9.856,3.622s-4.215,3.624-9.856,3.624S38.5,58.6,38.5,56.892s4.213-3.622,9.854-3.622M38.5,65.974c2.009,1.5,5.587,2.469,9.854,2.469s7.847-.965,9.856-2.469v3.292c0,1.711-4.215,3.624-9.856,3.624S38.5,70.976,38.5,69.266Zm19.71,9.477c0,1.713-4.215,3.624-9.856,3.624S38.5,77.163,38.5,75.45V72.16c2.009,1.5,5.587,2.467,9.854,2.467s7.847-.963,9.856-2.467Zm0-12.371c0,1.708-4.215,3.621-9.856,3.621S38.5,64.787,38.5,63.08V59.788c2.009,1.5,5.587,2.467,9.854,2.467s7.847-.965,9.856-2.467ZM79.961,75.453c0,1.709-4.215,3.622-9.856,3.622s-9.854-1.914-9.854-3.622V72.16c2.009,1.505,5.588,2.469,9.854,2.469s7.847-.963,9.856-2.469Zm0-6.187c0,1.71-4.215,3.624-9.856,3.624s-9.854-1.915-9.854-3.624V65.974c2.009,1.5,5.588,2.468,9.854,2.467s7.847-.965,9.856-2.467Zm0-6.187c0,1.713-4.215,3.624-9.856,3.624s-9.854-1.912-9.854-3.624v-3.29c2.009,1.5,5.588,2.467,9.854,2.467s7.847-.964,9.856-2.467Zm0-6.185c0,1.711-4.215,3.624-9.856,3.624s-9.854-1.914-9.854-3.624V53.6c2.009,1.5,5.588,2.469,9.854,2.469s7.847-.965,9.856-2.469Zm0-6.186c0,1.709-4.215,3.621-9.856,3.621s-9.854-1.913-9.854-3.621V47.416c2.009,1.5,5.588,2.468,9.854,2.468s7.847-.965,9.856-2.468Zm-9.855-2.564c-5.641,0-9.854-1.912-9.854-3.624S64.465,40.9,70.106,40.9s9.856,1.914,9.856,3.623-4.215,3.624-9.856,3.624" transform="translate(590 2354.226)" fill="#f0f0f2"/>
  </g>
</svg>
