<svg xmlns="http://www.w3.org/2000/svg" width="61.152" height="48" viewBox="0 0 61.152 48">
  <g id="Group_278" data-name="Group 278" transform="translate(-2245.83 -3206.07)">
    <path id="Path_260" data-name="Path 260" d="M155.828,69.6v-4.29c5.348,0,10.864-1.669,16.7-3.435,6.181-1.869,12.573-3.8,19.19-3.8a29.821,29.821,0,0,1,8.344,1.142V27.554a20.683,20.683,0,0,0-8.344-1.668c-5.348,0-10.865,1.669-16.705,3.435-6.181,1.869-12.572,3.8-19.189,3.8a29.821,29.821,0,0,1-8.335-1.139V63.644a20.675,20.675,0,0,0,8.332,1.664l0,4.29m0,0A24.661,24.661,0,0,1,143.2,66.281V25.519c16.173,9.3,32.346-3.922,48.518-3.922a24.668,24.668,0,0,1,12.634,3.321V65.68C188.181,56.368,172,69.6,155.828,69.6Z" transform="translate(2102.626 3184.473)" fill="#db0b1c"/>
    <path id="Path_261" data-name="Path 261" d="M164.689,37.777a11.83,11.83,0,0,1-6.023,4.483c-4.466,1.368-8.1-1.546-8.1-6.035,0-4.449,3.632-8.8,8.1-10.167a6.448,6.448,0,0,1,6.023.884h.022l.028-.039-.011-.017c-1.88-2.431-5.1-3.17-8.6-2.186-5.617,1.646-10.189,6.585-10.189,12.175,0,5.651,4.572,9.85,10.189,8.2a14.778,14.778,0,0,0,8.61-7.286l-.006-.033-.039.017" transform="translate(2115.084 3196.708)" fill="#db0b1c"/>
    <path id="Path_262" data-name="Path 262" d="M158.4,25.293l-.033-.006c-1.162.578-2.325,1.2-3.487,1.858q-1.085-1.226-2.158-2.425h-.033l-.022.033v3.671c-1.162.69-2.325,1.4-3.487,2.125l-.022.033.022.022c1.162.033,2.325.078,3.487.145V34.42l.022.022.006-.006.028-.017q1.076-1.769,2.158-3.515c1.162.1,2.325.234,3.487.412l.033-.017v-.033c-.718-.868-1.441-1.719-2.158-2.553.717-1.146,1.44-2.275,2.158-3.387v-.033" transform="translate(2129.796 3198.72)" fill="#db0b1c"/>
  </g>
</svg>
