<svg xmlns="http://www.w3.org/2000/svg" width="200" height="160.261" viewBox="0 0 200 160.261">
  <g id="Group_89" data-name="Group 89" transform="translate(-4029 -2490.739)">
    <path id="Ruby_Texture_PT" d="M200,0,0,16.2V160.261H200Z" transform="translate(4029 2490.739)" fill="#6d6b6b"/>
    <g id="Group_83" data-name="Group 83" transform="translate(2426.961 -40)">
      <path id="Path_134" data-name="Path 134" d="M807.62,362.972a.894.894,0,0,0-.632-.262H792.6a.894.894,0,1,0,0,1.787h14.385a.893.893,0,0,0,.893-.894h0a.9.9,0,0,0-.261-.631" transform="translate(906.15 2281.886)" fill="#f0f0f2"/>
      <path id="Path_135" data-name="Path 135" d="M758.2,362.71h-4.659a.894.894,0,0,0,0,1.787H758.2a.894.894,0,1,0,0-1.787" transform="translate(937.397 2281.886)" fill="#f0f0f2"/>
      <path id="Path_136" data-name="Path 136" d="M776.372,338.231a.894.894,0,0,0-.632-.262H753.534a.894.894,0,0,0,0,1.787H775.74a.893.893,0,0,0,.893-.893h0a.9.9,0,0,0-.261-.632" transform="translate(937.399 2301.675)" fill="#f0f0f2"/>
      <path id="Path_137" data-name="Path 137" d="M789.374,83.858l-23.047,3.468h25.909v-.543a2.927,2.927,0,0,0-2.862-2.924" transform="translate(926.452 2504.926)" fill="#f0f0f2"/>
      <path id="Path_138" data-name="Path 138" d="M612.619,0a50.037,50.037,0,1,0,50.037,50.037A50.037,50.037,0,0,0,612.619,0m22.1,77.849A4.718,4.718,0,0,1,630,82.56H591.416a.894.894,0,0,1-.893-.894V21.145a.873.873,0,0,1,.067-.331.739.739,0,0,1,.058-.1.872.872,0,0,1,.119-.177,1.142,1.142,0,0,1,.4-.237.812.812,0,0,1,.12-.041L626.212,15a.957.957,0,0,1,.133-.01h0a4.718,4.718,0,0,1,4.713,4.712v.673a4.714,4.714,0,0,1,3.657,4.583Z" transform="translate(1089.418 2572.001)" fill="#f0f0f2"/>
      <path id="Path_139" data-name="Path 139" d="M760.123,154.089h0a13.121,13.121,0,0,0-1.56,26.149c.01,0,.019.006.029.006h.006a12.126,12.126,0,0,0,3.046,0h0l.014,0a13.121,13.121,0,0,0-1.538-26.153m-3.953,2.513a19.645,19.645,0,0,0-1.79,3.094h-2.72a11.355,11.355,0,0,1,4.51-3.094m-5.813,4.881h3.308a16.917,16.917,0,0,0-.906,4.838H748.83a11.24,11.24,0,0,1,1.526-4.838m0,11.463a11.244,11.244,0,0,1-1.526-4.838h3.961a17.745,17.745,0,0,0,1.055,4.838Zm1.3,1.787h2.928a24.46,24.46,0,0,0,1.85,3.192,11.352,11.352,0,0,1-4.778-3.192m7.569,3.774c-.054,0-.111,0-.165-.008a25.09,25.09,0,0,1-2.473-3.766h2.637Zm0-5.561h-3.486a16.412,16.412,0,0,1-1.193-4.838h4.679Zm0-6.625H754.5a15,15,0,0,1,.989-4.838h3.736Zm0-10.4V159.7H756.3a16.44,16.44,0,0,1,2.7-3.762c.077-.008.156-.006.234-.012Zm9.357,3.774h-2.727a19.721,19.721,0,0,0-1.792-3.1,11.359,11.359,0,0,1,4.519,3.1m-2.851,6.626h-4.718v-4.838h3.729a14.99,14.99,0,0,1,.989,4.838m-4.718-10.4c.075.006.152,0,.226.011a16.434,16.434,0,0,1,2.7,3.763h-2.924Zm0,12.187h4.671a16.393,16.393,0,0,1-1.192,4.838h-3.479Zm.158,10.391c-.052.005-.106,0-.158.008h0v-3.774h2.631a25.161,25.161,0,0,1-2.473,3.766m2.625-.571a24.6,24.6,0,0,0,1.852-3.2h2.935a11.357,11.357,0,0,1-4.787,3.2m6.09-4.983h-3.5a17.759,17.759,0,0,0,1.055-4.838h3.968a11.241,11.241,0,0,1-1.527,4.838m-2.408-6.625h0a16.921,16.921,0,0,0-.906-4.838h3.315a11.245,11.245,0,0,1,1.526,4.838Z" transform="translate(941.913 2448.752)" fill="#f0f0f2"/>
    </g>
  </g>
</svg>
