<svg id="FT_Logo" data-name="FT Logo" xmlns="http://www.w3.org/2000/svg" xmlns:xlink="http://www.w3.org/1999/xlink" width="125" height="48.917" viewBox="0 0 125 48.917">
  <defs>
    <clipPath id="clip-path">
      <rect id="Rectangle_101" data-name="Rectangle 101" width="125" height="48.917" fill="#6d6b6b"/>
    </clipPath>
  </defs>
  <g id="Group_234" data-name="Group 234" clip-path="url(#clip-path)">
    <path id="Path_231" data-name="Path 231" d="M125,36.684H0V8.466L125,0ZM8.479,28.1h2.645V23.744h2.959V21.551H11.123V18.939h5.8V16.81H8.479Zm13.008,0h2.08V20.084H21.035v4.1c-.016,1.355-.726,2.064-1.693,2.064s-1.419-.564-1.419-1.758v-4.4H15.376v5.1a2.811,2.811,0,0,0,3.08,3.144,3.129,3.129,0,0,0,2.838-1.58Zm3.138-8.014V28.1h2.548V24.163c.016-1.387.726-2.08,1.758-2.08.935,0,1.419.451,1.419,1.838V28.1H32.9V23.067c0-1.919-.9-3.193-2.983-3.193a3.265,3.265,0,0,0-2.967,1.661l-.21-1.451ZM40.034,28.1h2.177V16.81H39.663v4.16a2.747,2.747,0,0,0-2.354-1.1c-2.128,0-3.531,1.467-3.531,4.305,0,2.725,1.322,4.144,3.386,4.144A2.928,2.928,0,0,0,39.9,26.856Zm-.339-4c0,1.6-.742,2.322-1.774,2.322-1.129,0-1.677-.742-1.677-2.306,0-1.661.58-2.354,1.661-2.354,1.032,0,1.79.661,1.79,2.338m3.4-6.369c0,.887.532,1.306,1.467,1.306s1.467-.419,1.467-1.306c0-.919-.532-1.322-1.467-1.322s-1.467.4-1.467,1.322M43.288,28.1h2.548V20.084H43.288Zm3.539-8.014V28.1h2.548V24.163c.016-1.387.726-2.08,1.758-2.08.935,0,1.419.451,1.419,1.838V28.1H55.1V23.067c0-1.919-.9-3.193-2.983-3.193a3.265,3.265,0,0,0-2.967,1.661l-.21-1.451Zm17.505,0H62.268l-.21,1.161a2.8,2.8,0,0,0-2.628-1.371c-2.128,0-3.5,1.371-3.5,4.1,0,2.693,1.338,4.031,3.354,4.031A2.644,2.644,0,0,0,61.8,26.663v1.145a1.831,1.831,0,0,1-2.064,2.032,2.252,2.252,0,0,1-2.128-1.177L56.173,29.9c.645,1.29,2.08,1.758,3.66,1.758,2.612,0,4.5-1.225,4.5-3.886Zm-2.515,3.838c0,1.5-.709,2.225-1.774,2.225-1.1,0-1.677-.693-1.677-2.209,0-1.483.581-2.193,1.677-2.193,1.032,0,1.774.693,1.774,2.177M85.966,28.1h2.548V24.921c.016-1.725.871-2.774,2.661-2.628l-.016-2.419a2.983,2.983,0,0,0-2.87,1.806l-.21-1.6H85.966Zm6.089,0H94.57V26.372l.984-1.08L97.472,28.1h2.806l-3.08-4.45,3.048-3.564H97.489l-2.967,3.66.065-6.934H92.055Zm11.984.226a3.729,3.729,0,0,0,3.58-1.822l-1.532-.935a1.842,1.842,0,0,1-1.854,1.016,1.714,1.714,0,0,1-1.935-1.79h5.386a5.693,5.693,0,0,0,.064-.871c0-2.274-1.1-4.047-3.773-4.047-2.612,0-4.1,1.58-4.1,4.273,0,2.838,1.613,4.176,4.16,4.176m-.113-6.676c.919,0,1.419.548,1.484,1.677H102.3c.1-1.145.693-1.677,1.629-1.677m6.63,7.111a1.343,1.343,0,0,1-1.371,1.016,2.864,2.864,0,0,1-1.161-.258l-.258,1.822a4.451,4.451,0,0,0,1.725.306,3.147,3.147,0,0,0,3.306-2.064l3.725-9.5h-2.612L112.1,25.421l-1.87-5.337H107.6l3.161,8.046ZM68.723,16.81v2.225h3.451V28.1h2.645V19.036h3.451V16.81ZM82.828,28.1h2.08V20.084H82.376v4.1c-.016,1.355-.726,2.064-1.693,2.064s-1.419-.564-1.419-1.758v-4.4H76.716v5.1a2.811,2.811,0,0,0,3.08,3.144,3.129,3.129,0,0,0,2.838-1.58Z" fill="#6d6b6b"/>
    <path id="Path_232" data-name="Path 232" d="M271.789,535.325h2.653a1.806,1.806,0,0,1,1.983,1.991,1.883,1.883,0,0,1-2.136,1.991h-1.177v1.661h-1.322Zm1.322,1.113v1.8h1.129a.823.823,0,0,0,.879-.935.8.8,0,0,0-.887-.863Z" transform="translate(-249.876 -492.164)" fill="#6d6b6b"/>
    <path id="Path_233" data-name="Path 233" d="M336.693,558.542c-.806,0-1.354-.419-1.354-1.177,0-.863.669-1.379,1.8-1.379h.806c-.032-.572-.347-.717-.855-.717a1.443,1.443,0,0,0-1.153.46l-.484-.71a2.279,2.279,0,0,1,1.83-.693c1.1,0,1.911.419,1.911,1.717v2.395H338.12l-.089-.6a1.456,1.456,0,0,1-1.338.7m1.25-1.75v-.073h-.677c-.532,0-.774.169-.774.548,0,.3.194.476.6.476a.834.834,0,0,0,.855-.951" transform="translate(-308.302 -509.632)" fill="#6d6b6b"/>
    <path id="Path_234" data-name="Path 234" d="M393.989,554.423h1.056l.1.8a1.492,1.492,0,0,1,1.435-.9l.008,1.209c-.895-.073-1.322.451-1.33,1.314v1.588h-1.274Z" transform="translate(-362.224 -509.626)" fill="#6d6b6b"/>
    <path id="Path_235" data-name="Path 235" d="M431.312,542.662v-1.137h1.242v1.137h1.072v.927h-1.072v1.621c0,.468.21.637.564.637a1.1,1.1,0,0,0,.492-.1l.169.806a2,2,0,0,1-.992.234,1.306,1.306,0,0,1-1.475-1.459v-1.734H430.7v-.927Z" transform="translate(-395.974 -497.864)" fill="#6d6b6b"/>
    <path id="Path_236" data-name="Path 236" d="M476.3,554.43l.1.726a1.632,1.632,0,0,1,1.483-.83c1.04,0,1.492.637,1.492,1.6v2.515H478.11v-2.088c0-.693-.242-.919-.709-.919-.516,0-.871.347-.879,1.04v1.967h-1.274V554.43Z" transform="translate(-436.931 -509.632)" fill="#6d6b6b"/>
    <path id="Path_237" data-name="Path 237" d="M534.919,556.462a1.909,1.909,0,0,1,2.048-2.136,1.783,1.783,0,0,1,1.887,2.024,2.838,2.838,0,0,1-.032.435h-2.693a.857.857,0,0,0,.968.895.921.921,0,0,0,.927-.508l.766.468a2.126,2.126,0,0,1-3.87-1.177m1.209-.411h1.556c-.032-.564-.282-.838-.742-.838s-.766.266-.814.838" transform="translate(-491.791 -509.633)" fill="#6d6b6b"/>
    <path id="Path_238" data-name="Path 238" d="M592.679,554.423h1.056l.1.8a1.492,1.492,0,0,1,1.435-.9l.008,1.209c-.895-.073-1.322.451-1.33,1.314v1.588h-1.274Z" transform="translate(-544.894 -509.626)" fill="#6d6b6b"/>
    <path id="Path_239" data-name="Path 239" d="M629.659,556.462a1.909,1.909,0,0,1,2.048-2.136,1.783,1.783,0,0,1,1.887,2.024,2.831,2.831,0,0,1-.032.435h-2.693a.857.857,0,0,0,.967.895.921.921,0,0,0,.927-.508l.766.468a2.126,2.126,0,0,1-3.87-1.177m1.209-.411h1.556c-.032-.564-.282-.838-.742-.838s-.766.266-.814.838" transform="translate(-578.893 -509.633)" fill="#6d6b6b"/>
    <path id="Path_240" data-name="Path 240" d="M688.1,540.348a1.464,1.464,0,0,1-1.371.734c-1.032,0-1.693-.709-1.693-2.072,0-1.419.7-2.153,1.766-2.153a1.374,1.374,0,0,1,1.177.548v-2.08h1.274v5.644h-1.088Zm-1-2.548c-.54,0-.83.347-.83,1.177,0,.782.274,1.153.839,1.153.516,0,.887-.363.887-1.161,0-.839-.379-1.169-.895-1.169" transform="translate(-629.808 -492.164)" fill="#6d6b6b"/>
    <path id="Path_241" data-name="Path 241" d="M769.89,534.2V533.9a1.389,1.389,0,0,1,1.516-1.572,1.875,1.875,0,0,1,.943.218l-.218.831a.865.865,0,0,0-.459-.113c-.355,0-.54.185-.54.661v.282h1.048v.927h-1.048v3.08H769.89v-3.08h-.653V534.2Z" transform="translate(-707.217 -489.406)" fill="#6d6b6b"/>
    <path id="Path_242" data-name="Path 242" d="M811.991,554.325a1.838,1.838,0,0,1,2.1,2.1,2.1,2.1,0,1,1-2.1-2.1m0,.951c-.637,0-.9.331-.9,1.161s.282,1.177.9,1.177.895-.339.895-1.177-.266-1.161-.895-1.161" transform="translate(-744.59 -509.632)" fill="#6d6b6b"/>
    <path id="Path_243" data-name="Path 243" d="M871.008,554.423h1.056l.1.8a1.492,1.492,0,0,1,1.435-.9l.008,1.209c-.895-.073-1.322.451-1.33,1.314v1.588h-1.274Z" transform="translate(-800.783 -509.626)" fill="#6d6b6b"/>
    <path id="Path_244" data-name="Path 244" d="M934.406,536.852c0-2.048.919-2.927,2.749-2.927a2.106,2.106,0,0,1,2.2,1.2l-1.056.564a1.114,1.114,0,0,0-1.153-.677c-.911,0-1.411.411-1.411,1.846s.508,1.887,1.427,1.887a1.087,1.087,0,0,0,1.185-1.064v-.065h-1.177v-.984h2.37v3.048h-.935l-.081-.693a1.778,1.778,0,0,1-1.6.806c-1.572,0-2.516-.943-2.516-2.943" transform="translate(-859.069 -490.877)" fill="#6d6b6b"/>
    <path id="Path_245" data-name="Path 245" d="M1009.816,554.423h1.056l.1.8a1.491,1.491,0,0,1,1.435-.9l.008,1.209c-.895-.073-1.322.451-1.33,1.314v1.588h-1.274Z" transform="translate(-928.399 -509.626)" fill="#6d6b6b"/>
    <path id="Path_246" data-name="Path 246" d="M1049.049,554.325a1.838,1.838,0,0,1,2.1,2.1,2.1,2.1,0,1,1-2.1-2.1m0,.951c-.637,0-.9.331-.9,1.161s.282,1.177.9,1.177.895-.339.895-1.177-.266-1.161-.895-1.161" transform="translate(-962.535 -509.632)" fill="#6d6b6b"/>
    <path id="Path_247" data-name="Path 247" d="M1105.009,555.641l.758,2.523.685-2.54h1.145l-1.25,4.007h-1.137l-.734-2.572-.726,2.572h-1.129l-1.266-4.007h1.185l.7,2.524.75-2.507Z" transform="translate(-1012.559 -510.828)" fill="#6d6b6b"/>
    <path id="Path_248" data-name="Path 248" d="M1183.359,542.662v-1.137h1.242v1.137h1.072v.927H1184.6v1.621c0,.468.21.637.564.637a1.1,1.1,0,0,0,.492-.1l.169.806a2,2,0,0,1-.992.234,1.306,1.306,0,0,1-1.475-1.459v-1.734h-.613v-.927Z" transform="translate(-1087.387 -497.864)" fill="#6d6b6b"/>
    <path id="Path_249" data-name="Path 249" d="M1228.57,537.7a1.525,1.525,0,0,1,1.411-.838c1,0,1.451.637,1.451,1.6v2.515h-1.274v-2.088c0-.693-.25-.919-.71-.919-.516,0-.871.347-.879,1.04v1.967H1227.3v-5.644h1.274Z" transform="translate(-1128.345 -492.165)" fill="#6d6b6b"/>
  </g>
</svg>
