<svg xmlns="http://www.w3.org/2000/svg" xmlns:xlink="http://www.w3.org/1999/xlink" width="475" height="185.885" viewBox="0 0 475 185.885">
  <defs>
    <clipPath id="clip-path">
      <rect id="Rectangle_101" data-name="Rectangle 101" width="475" height="185.885" fill="#f0f0f2"/>
    </clipPath>
  </defs>
  <g id="FT_Logo" data-name="FT Logo" transform="translate(0 -22)">
    <g id="Group_234" data-name="Group 234" transform="translate(0 22)" clip-path="url(#clip-path)">
      <path id="Path_231" data-name="Path 231" d="M475,139.4H0V32.169L475,0ZM32.219,106.772H42.269V90.228H53.512V81.894H42.269V71.968H64.327V63.88H32.219Zm49.431,0h7.9V76.318h-9.62V91.882c-.061,5.147-2.757,7.843-6.434,7.843s-5.392-2.145-5.392-6.679V76.318H58.427V95.681c0,6.985,3.493,11.948,11.7,11.948a11.889,11.889,0,0,0,10.784-6ZM93.575,76.318v30.453h9.681V91.821c.061-5.27,2.757-7.9,6.679-7.9,3.554,0,5.392,1.716,5.392,6.985v15.87h9.681V87.654c0-7.292-3.431-12.132-11.336-12.132A12.405,12.405,0,0,0,102.4,81.833l-.8-5.514Zm58.554,30.453H160.4V63.88h-9.681V79.689c-1.961-2.7-4.963-4.167-8.946-4.167-8.088,0-13.419,5.576-13.419,16.36,0,10.355,5.025,15.747,12.868,15.747,4.84,0,8.394-1.961,10.416-5.576Zm-1.287-15.2c0,6.066-2.819,8.823-6.74,8.823-4.289,0-6.372-2.819-6.372-8.762,0-6.311,2.206-8.946,6.311-8.946,3.922,0,6.8,2.512,6.8,8.885m12.919-24.2c0,3.37,2.022,4.963,5.576,4.963s5.576-1.593,5.576-4.963c0-3.493-2.022-5.025-5.576-5.025s-5.576,1.532-5.576,5.025m.735,39.4h9.681V76.318H164.5Zm13.447-30.453v30.453h9.681V91.821c.061-5.27,2.757-7.9,6.679-7.9,3.554,0,5.392,1.716,5.392,6.985v15.87h9.681V87.654c0-7.292-3.431-12.132-11.336-12.132a12.405,12.405,0,0,0-11.275,6.311l-.8-5.514Zm66.519,0H236.62l-.8,4.412c-1.961-3.492-5.453-5.208-9.988-5.208-8.088,0-13.3,5.208-13.3,15.564,0,10.233,5.086,15.318,12.745,15.318,4.534,0,7.659-1.716,9.559-5.086v4.351c0,5.331-3,7.721-7.843,7.721-3.431,0-6.25-1.226-8.088-4.473l-5.453,4.718c2.451,4.9,7.9,6.679,13.909,6.679,9.927,0,17.1-4.657,17.1-14.767ZM234.9,90.9c0,5.7-2.7,8.456-6.74,8.456-4.166,0-6.372-2.635-6.372-8.394,0-5.637,2.206-8.333,6.372-8.333,3.922,0,6.74,2.635,6.74,8.272m91.766,15.87h9.681V94.7c.061-6.556,3.309-10.539,10.11-9.988l-.061-9.191a11.335,11.335,0,0,0-10.907,6.863l-.8-6.066H326.67Zm23.137,0h9.559v-6.556L363.1,96.11l7.291,10.662h10.662l-11.7-16.912,11.581-13.541H370.457L359.182,90.228l.245-26.348h-9.62Zm45.538.858c6.311,0,11.091-2.206,13.6-6.924l-5.821-3.554c-1.532,2.88-3.738,3.86-7.047,3.86-4.412,0-6.924-1.961-7.353-6.8h20.466a21.638,21.638,0,0,0,.245-3.309c0-8.64-4.166-15.38-14.338-15.38-9.926,0-15.564,6-15.564,16.238,0,10.784,6.128,15.87,15.809,15.87m-.429-25.368c3.493,0,5.392,2.083,5.637,6.373H388.728c.368-4.351,2.635-6.373,6.188-6.373m25.193,27.022a5.1,5.1,0,0,1-5.208,3.86,10.882,10.882,0,0,1-4.412-.98l-.98,6.924a16.913,16.913,0,0,0,6.556,1.165c5.7,0,10.172-1.838,12.561-7.843l14.154-36.09h-9.927L425.992,96.6l-7.108-20.281H408.9l12.01,30.576ZM261.148,63.88v8.456h13.113v34.436H284.31V72.336h13.113V63.88Zm53.6,42.892h7.9V76.318h-9.62V91.882c-.061,5.147-2.757,7.843-6.434,7.843S301.2,97.58,301.2,93.046V76.318h-9.681V95.681c0,6.985,3.493,11.948,11.7,11.948a11.889,11.889,0,0,0,10.784-6Z" fill="#f0f0f2"/>
      <path id="Path_232" data-name="Path 232" d="M271.789,535.325h10.08c5.024,0,7.537,2.972,7.537,7.567,0,4.9-3.063,7.568-8.119,7.568h-4.473v6.311h-5.025Zm5.025,4.228v6.832H281.1c2.083,0,3.339-1.225,3.339-3.554a3.036,3.036,0,0,0-3.37-3.278Z" transform="translate(-188.519 -371.314)" fill="#f0f0f2"/>
      <path id="Path_233" data-name="Path 233" d="M340.486,570.348c-3.064,0-5.147-1.593-5.147-4.473,0-3.278,2.543-5.239,6.832-5.239h3.064c-.123-2.175-1.317-2.726-3.248-2.726a5.484,5.484,0,0,0-4.381,1.746l-1.838-2.7c1.47-1.746,3.829-2.635,6.954-2.635,4.2,0,7.261,1.593,7.261,6.526v9.1h-4.075l-.337-2.267a5.531,5.531,0,0,1-5.086,2.665m4.749-6.648v-.276h-2.574c-2.022,0-2.941.643-2.941,2.083,0,1.134.735,1.808,2.267,1.808,1.991,0,3.248-1.317,3.248-3.615" transform="translate(-232.599 -384.493)" fill="#f0f0f2"/>
      <path id="Path_234" data-name="Path 234" d="M393.989,554.718H398l.4,3.033a5.667,5.667,0,0,1,5.453-3.431l.03,4.6c-3.4-.276-5.024,1.716-5.055,4.994v6.035h-4.841Z" transform="translate(-273.28 -384.488)" fill="#f0f0f2"/>
      <path id="Path_235" data-name="Path 235" d="M433.027,545.845v-4.32h4.718v4.32h4.075v3.523h-4.075v6.158c0,1.777.8,2.42,2.144,2.42a4.172,4.172,0,0,0,1.869-.4l.643,3.064a7.613,7.613,0,0,1-3.768.888c-3.156,0-5.607-1.379-5.607-5.545v-6.587H430.7v-3.523Z" transform="translate(-298.743 -375.615)" fill="#f0f0f2"/>
      <path id="Path_236" data-name="Path 236" d="M479.262,554.723l.4,2.757a6.2,6.2,0,0,1,5.637-3.156c3.952,0,5.668,2.42,5.668,6.066v9.559h-4.841v-7.935c0-2.635-.919-3.493-2.7-3.493-1.961,0-3.309,1.317-3.339,3.952v7.475h-4.841V554.723Z" transform="translate(-329.644 -384.493)" fill="#f0f0f2"/>
      <path id="Path_237" data-name="Path 237" d="M534.919,562.444c0-5.116,2.819-8.118,7.782-8.118,5.086,0,7.169,3.37,7.169,7.689a10.764,10.764,0,0,1-.123,1.654H539.515c.214,2.42,1.471,3.4,3.677,3.4a3.5,3.5,0,0,0,3.523-1.93l2.911,1.777c-1.256,2.359-3.646,3.462-6.8,3.462-4.841,0-7.9-2.543-7.9-7.935m4.6-1.562h5.913c-.123-2.145-1.072-3.186-2.819-3.186-1.777,0-2.911,1.011-3.094,3.186" transform="translate(-371.033 -384.494)" fill="#f0f0f2"/>
      <path id="Path_238" data-name="Path 238" d="M592.679,554.718h4.013l.4,3.033a5.667,5.667,0,0,1,5.453-3.431l.03,4.6c-3.4-.276-5.024,1.716-5.055,4.994v6.035h-4.841Z" transform="translate(-411.097 -384.488)" fill="#f0f0f2"/>
      <path id="Path_239" data-name="Path 239" d="M629.659,562.444c0-5.116,2.818-8.118,7.782-8.118,5.086,0,7.169,3.37,7.169,7.689a10.764,10.764,0,0,1-.123,1.654H634.255c.214,2.42,1.47,3.4,3.677,3.4a3.5,3.5,0,0,0,3.523-1.93l2.911,1.777c-1.256,2.359-3.646,3.462-6.8,3.462-4.84,0-7.9-2.543-7.9-7.935m4.6-1.562h5.913c-.123-2.145-1.072-3.186-2.819-3.186-1.777,0-2.911,1.011-3.094,3.186" transform="translate(-436.747 -384.494)" fill="#f0f0f2"/>
      <path id="Path_240" data-name="Path 240" d="M696.681,554.412a5.562,5.562,0,0,1-5.208,2.788c-3.922,0-6.434-2.7-6.434-7.874,0-5.392,2.665-8.18,6.71-8.18a5.219,5.219,0,0,1,4.473,2.083v-7.9h4.84v21.446h-4.136Zm-3.8-9.682c-2.053,0-3.156,1.317-3.156,4.473,0,2.971,1.042,4.381,3.186,4.381,1.961,0,3.37-1.379,3.37-4.411,0-3.186-1.44-4.443-3.4-4.443" transform="translate(-475.16 -371.314)" fill="#f0f0f2"/>
      <path id="Path_241" data-name="Path 241" d="M771.719,539.464V538.3c0-4.167,2.328-5.974,5.76-5.974a7.125,7.125,0,0,1,3.585.827l-.827,3.156a3.287,3.287,0,0,0-1.746-.429c-1.348,0-2.053.7-2.053,2.512v1.072h3.983v3.523h-3.983v11.7h-4.718v-11.7h-2.482v-3.523Z" transform="translate(-533.561 -369.234)" fill="#f0f0f2"/>
      <path id="Path_242" data-name="Path 242" d="M817.883,554.325c5.362,0,8,2.482,8,8,0,5.361-2.757,8.057-8,8.057-5.27,0-8-2.6-8-8.057,0-5.484,2.972-8,8-8m0,3.615c-2.42,0-3.431,1.256-3.431,4.411,0,3.186,1.072,4.473,3.431,4.473,2.328,0,3.4-1.287,3.4-4.473,0-3.155-1.011-4.411-3.4-4.411" transform="translate(-561.757 -384.493)" fill="#f0f0f2"/>
      <path id="Path_243" data-name="Path 243" d="M871.008,554.718h4.014l.4,3.033a5.667,5.667,0,0,1,5.453-3.431l.03,4.6c-3.4-.276-5.024,1.716-5.055,4.994v6.035h-4.841Z" transform="translate(-604.152 -384.488)" fill="#f0f0f2"/>
      <path id="Path_244" data-name="Path 244" d="M934.406,545.046c0-7.781,3.493-11.121,10.447-11.121,4.228,0,6.954,1.348,8.364,4.565l-4.014,2.145a4.232,4.232,0,0,0-4.381-2.574c-3.462,0-5.362,1.562-5.362,7.016s1.93,7.169,5.423,7.169c2.114,0,4.289-1.042,4.5-4.044v-.245h-4.473v-3.737h9.007V555.8h-3.554l-.306-2.635a6.757,6.757,0,0,1-6.1,3.064c-5.974,0-9.559-3.585-9.559-11.183" transform="translate(-648.127 -370.343)" fill="#f0f0f2"/>
      <path id="Path_245" data-name="Path 245" d="M1009.816,554.718h4.014l.4,3.033a5.667,5.667,0,0,1,5.453-3.431l.03,4.6c-3.4-.276-5.024,1.716-5.055,4.994v6.035h-4.841Z" transform="translate(-700.433 -384.488)" fill="#f0f0f2"/>
      <path id="Path_246" data-name="Path 246" d="M1054.941,554.325c5.362,0,8,2.482,8,8,0,5.361-2.757,8.057-8,8.057-5.27,0-8-2.6-8-8.057,0-5.484,2.972-8,8-8m0,3.615c-2.42,0-3.431,1.256-3.431,4.411,0,3.186,1.072,4.473,3.431,4.473,2.328,0,3.4-1.287,3.4-4.473,0-3.155-1.011-4.411-3.4-4.411" transform="translate(-726.186 -384.493)" fill="#f0f0f2"/>
      <path id="Path_247" data-name="Path 247" d="M1115.235,555.686l2.88,9.589,2.6-9.651h4.351l-4.749,15.227H1116l-2.788-9.773-2.757,9.773h-4.289l-4.81-15.227h4.5l2.666,9.589,2.849-9.528Z" transform="translate(-763.928 -385.395)" fill="#f0f0f2"/>
      <path id="Path_248" data-name="Path 248" d="M1185.074,545.845v-4.32h4.718v4.32h4.075v3.523h-4.075v6.158c0,1.777.8,2.42,2.144,2.42a4.171,4.171,0,0,0,1.869-.4l.643,3.064a7.614,7.614,0,0,1-3.768.888c-3.156,0-5.607-1.379-5.607-5.545v-6.587h-2.328v-3.523Z" transform="translate(-820.381 -375.615)" fill="#f0f0f2"/>
      <path id="Path_249" data-name="Path 249" d="M1232.137,544.333a5.8,5.8,0,0,1,5.362-3.186c3.8,0,5.515,2.42,5.515,6.066v9.559h-4.841v-7.935c0-2.635-.95-3.492-2.7-3.492-1.961,0-3.309,1.317-3.34,3.952v7.476H1227.3V535.326h4.841Z" transform="translate(-851.282 -371.315)" fill="#f0f0f2"/>
    </g>
  </g>
</svg>
