<svg xmlns="http://www.w3.org/2000/svg" width="200" height="160.261" viewBox="0 0 200 160.261">
  <g id="Group_86" data-name="Group 86" transform="translate(-1820 -2315)">
    <path id="Ruby_Texture_PT" d="M200,0,0,16.2V160.261H200Z" transform="translate(1820 2315)" fill="#6d6b6b"/>
    <path id="Path_133" data-name="Path 133" d="M1142.052,530.69a50,50,0,1,0,50,50,50,50,0,0,0-50-50m5.15,20.556a1.019,1.019,0,0,1,2.037,0v5.093a1.019,1.019,0,1,1-2.037,0Zm-10.187-2.037a1.019,1.019,0,0,1,2.037,0V554.3a1.019,1.019,0,0,1-2.037,0Zm-10.187,2.037a1.019,1.019,0,0,1,2.037,0v5.093a1.019,1.019,0,1,1-2.037,0Zm3.055,8.3a16.3,16.3,0,0,1,24.449,14.115,15.866,15.866,0,0,1-.3,3.056h-4.166a12.224,12.224,0,1,0-23.675,0h-4.166a15.873,15.873,0,0,1-.3-3.056,16.3,16.3,0,0,1,8.15-14.115m18.336,14.115a10.1,10.1,0,0,1-.468,3.056h-19.437a10.187,10.187,0,1,1,19.905-3.056m-33.617-1.019a4.069,4.069,0,0,1,4.075-4.075h1.742a18.324,18.324,0,0,0-.723,5.093,17.884,17.884,0,0,0,.265,3.056h-1.283a4.074,4.074,0,0,1-4.075-4.075m50.936,31.58a5.1,5.1,0,0,1-5.093,5.093H1119.7a5.1,5.1,0,0,1-5.093-5.093V577.182a6.041,6.041,0,0,0,4.075,1.569h41.766a5.1,5.1,0,0,1,5.093,5.093v4.075h-8.15a6.117,6.117,0,0,0-6.112,6.112h0a6.118,6.118,0,0,0,6.112,6.112h8.15Zm-9.893-35.655h1.742a4.074,4.074,0,0,1,4.075,4.075v4.075H1156.1a17.872,17.872,0,0,0,.265-3.056,18.324,18.324,0,0,0-.723-5.093m11.93,28.523a1.019,1.019,0,0,1-1.019,1.019h-9.168a4.075,4.075,0,1,1,0-8.149h9.168a1.019,1.019,0,0,1,1.019,1.019Zm7.92-38.065-9.168,11.206a1.02,1.02,0,0,1-1.578,0l-9.168-11.206a1.019,1.019,0,0,1,.789-1.664h4.075v-8.15a1.019,1.019,0,0,1,1.019-1.019h8.149a1.019,1.019,0,0,1,1.019,1.019v8.15h4.075a1.02,1.02,0,0,1,.789,1.664" transform="translate(777.948 1825.31)" fill="#f0f0f2"/>
  </g>
</svg>
